<?xml version="1.0" encoding="UTF-8"?>
<svg version="1.1" xmlns="http://www.w3.org/2000/svg" width="500" height="500">
<path d="M0 0 C1.15442177 -0.00226556 2.30884355 -0.00453111 3.4982478 -0.00686532 C6.69397239 -0.01209404 9.88966152 -0.01285131 13.08538902 -0.01167095 C16.53538977 -0.0114666 19.98538218 -0.01698893 23.43537903 -0.02172852 C30.19139144 -0.03002828 36.94739513 -0.03278305 43.70341221 -0.03334089 C49.19613784 -0.03381637 54.68886059 -0.03587273 60.18158531 -0.03904152 C75.76106745 -0.04784626 91.34054271 -0.05246118 106.92002735 -0.05171105 C107.75959017 -0.05167109 108.59915299 -0.05163113 109.4641571 -0.05158997 C110.30474728 -0.05154909 111.14533746 -0.0515082 112.01140007 -0.05146609 C125.63315492 -0.05105967 139.25488212 -0.0606286 152.87662897 -0.07472833 C166.86980791 -0.08909802 180.86297337 -0.09599819 194.85615987 -0.09513456 C202.70966363 -0.09480279 210.5631384 -0.09754091 218.41663551 -0.10831261 C225.10339598 -0.1174254 231.79011433 -0.11958646 238.47687832 -0.11280318 C241.88658814 -0.10954191 245.29621717 -0.10946706 248.70591927 -0.11815643 C252.4072084 -0.12587046 256.10828576 -0.12123519 259.80957031 -0.11352539 C260.88040039 -0.11866895 261.95123047 -0.12381252 263.05450994 -0.12911195 C273.89388334 -0.07926489 284.59410509 1.62834978 292.86479187 9.21574402 C302.32582067 19.51931342 304.90238061 29.04001028 304.86268616 42.79000854 C304.86721727 43.94740046 304.87174838 45.10479237 304.8764168 46.29725677 C304.88685099 49.49217453 304.88839282 52.68694992 304.88602805 55.88187921 C304.88561849 59.33466014 304.89667233 62.78740799 304.90614319 66.24017334 C304.92272469 72.99859482 304.92825146 79.75698141 304.92936794 86.51542153 C304.93031986 92.01235934 304.93443734 97.50928568 304.9407692 103.00621986 C304.95837459 118.60896495 304.96760928 134.21168256 304.96610825 149.81443765 C304.96602834 150.65480576 304.96594842 151.49517388 304.96586609 152.36100769 C304.96578433 153.20240824 304.96570257 154.04380879 304.96561833 154.91070632 C304.96480584 168.5393672 304.98393584 182.16791746 305.01214282 195.79654636 C305.04091183 209.80789403 305.05468088 223.81918782 305.05295527 237.83056575 C305.05229271 245.68979206 305.05772604 253.54890242 305.07931137 261.40810204 C305.09757623 268.10095984 305.10182727 274.79364914 305.08829252 281.48652115 C305.08178917 284.89682897 305.08154912 288.30681404 305.09899902 291.71709061 C305.11450477 295.42584482 305.10510682 299.13376174 305.08973694 302.84249878 C305.10002406 303.9042042 305.11031119 304.96590962 305.12091005 306.05978793 C305.03290359 315.72613885 303.33519302 326.51864776 296.28276062 333.63371277 C295.10520203 334.82480652 295.10520203 334.82480652 293.90385437 336.03996277 C283.96429745 345.05451862 275.10107932 346.28594148 262.06990051 346.26742554 C260.90252252 346.26969109 259.73514452 346.27195665 258.53239143 346.27429086 C255.30053163 346.27951994 252.06870688 346.28027679 248.83684421 346.27909648 C245.34800746 346.27889215 241.85917896 346.28441429 238.37034607 346.28915405 C231.53846826 346.29745389 224.70659908 346.30020858 217.87471665 346.30076643 C212.32096032 346.30124187 206.76720682 346.303298 201.21345139 346.30646706 C185.46289101 346.31527149 169.71233745 346.31988671 153.9617746 346.31913658 C153.11298807 346.31909663 152.26420155 346.31905667 151.38969421 346.3190155 C150.11495772 346.31895418 150.11495772 346.31895418 148.81446896 346.31889162 C135.04007531 346.31848512 121.26570899 346.32805628 107.49132325 346.34215387 C93.34333746 346.35651944 79.19536501 346.36342397 65.04737175 346.36256009 C57.10615057 346.36222821 49.16495805 346.36497173 41.22374344 346.37573814 C34.46302696 346.38484547 27.70235213 346.38701645 20.94163217 346.38022872 C17.49356651 346.37696481 14.04558078 346.37690218 10.59752274 346.38558197 C6.85647293 346.39328555 3.11563321 346.38866768 -0.62541199 346.38095093 C-1.71082775 346.38609449 -2.79624351 346.39123805 -3.91455066 346.39653748 C-14.79649729 346.3469144 -23.85000945 344.05722338 -32.15473938 336.69621277 C-32.89723938 335.85058777 -33.63973938 335.00496277 -34.40473938 334.13371277 C-35.25036438 333.30871277 -36.09598938 332.48371277 -36.96723938 331.63371277 C-43.34213632 323.78600816 -43.99358549 312.53101583 -43.90594482 302.85595703 C-43.91147922 301.6921763 -43.91701362 300.52839556 -43.92271572 299.32934874 C-43.93622174 295.46809593 -43.9214072 291.60750082 -43.90644836 287.7462616 C-43.90802763 284.96256432 -43.91558651 282.17889019 -43.92282104 279.39520264 C-43.93669398 272.64309193 -43.92924224 265.8911693 -43.91414546 259.13906769 C-43.89721696 251.26578921 -43.90050409 243.39255668 -43.90423954 235.51926561 C-43.91010693 221.46761446 -43.89598917 207.41605314 -43.87129211 193.36442566 C-43.8473609 179.74687841 -43.84029464 166.1294511 -43.8507843 152.5118866 C-43.86220567 137.65831993 -43.86410958 122.80480863 -43.84968621 107.95124263 C-43.84816046 106.36615321 -43.84664011 104.78106378 -43.8451252 103.19597435 C-43.84436738 102.416209 -43.84360957 101.63644364 -43.84282879 100.83304903 C-43.83809646 95.35179329 -43.83992983 89.87056237 -43.8441906 84.38930702 C-43.84912815 77.70710311 -43.84308413 71.02501234 -43.8232963 64.34283427 C-43.81345732 60.93697764 -43.80828229 57.53129292 -43.81618881 54.12542725 C-43.82215839 50.426941 -43.80960352 46.72895851 -43.79241943 43.03051758 C-43.79842948 41.96348423 -43.80443952 40.89645089 -43.81063169 39.7970832 C-43.71228221 28.13049566 -40.5915293 18.73817627 -32.55317688 10.15715027 C-22.87927484 1.09991131 -12.76973172 -0.0183525 0 0 Z M35.59526062 88.13371277 C35.49689021 89.82698334 35.46894047 91.52437932 35.46827698 93.22050476 C35.46545715 94.32268845 35.46263733 95.42487213 35.45973206 96.56045532 C35.46175629 97.78023575 35.46378052 99.00001617 35.46586609 100.25675964 C35.46411377 101.53301712 35.46236145 102.8092746 35.46055603 104.12420654 C35.45598213 107.63444269 35.45777107 111.14464957 35.46093512 114.65488625 C35.46345894 118.32064012 35.46112112 121.98639142 35.45954895 125.65214539 C35.45772732 131.80925448 35.46013339 137.96635159 35.46488953 144.12345886 C35.47033214 151.25176882 35.46856947 158.38005017 35.46306312 165.50835943 C35.4585318 171.61790128 35.45788153 177.7274345 35.46050179 183.83697748 C35.46206446 187.49061712 35.4622586 191.1442433 35.4589653 194.79788208 C35.45555247 198.86882738 35.46027663 202.93972302 35.46586609 207.01066589 C35.46384186 208.23044632 35.46181763 209.45022675 35.45973206 210.70697021 C35.46255188 211.8091539 35.4653717 212.91133759 35.46827698 214.04692078 C35.468654 215.01073921 35.46903103 215.97455765 35.46941948 216.9675827 C35.35321937 219.11330698 35.35321937 219.11330698 36.59526062 220.13371277 C38.52193569 220.22119484 40.45177923 220.24068611 42.38041687 220.23136902 C43.96028381 220.22762268 43.96028381 220.22762268 45.57206726 220.22380066 C47.59448547 220.21014465 47.59448547 220.21014465 49.65776062 220.19621277 C53.92713562 220.17558777 58.19651062 220.15496277 62.59526062 220.13371277 C62.59526062 206.60371277 62.59526062 193.07371277 62.59526062 179.13371277 C78.40776062 178.82121277 78.40776062 178.82121277 83.32499695 178.74577332 C95.14151773 178.4476584 104.945207 176.31410922 115.59526062 171.13371277 C115.59526062 170.47371277 115.59526062 169.81371277 115.59526062 169.13371277 C116.29651062 168.94808777 116.99776062 168.76246277 117.72026062 168.57121277 C124.33595679 165.26336468 129.35345628 157.47968558 131.86088562 150.72355652 C135.98241567 135.43137162 135.70820078 121.85890305 128.18510437 107.56730652 C125.10578422 102.85375259 120.82391761 97.19147175 115.31791687 95.38761902 C114.74944031 95.30382996 114.18096375 95.22004089 113.59526062 95.13371277 C113.59526062 94.47371277 113.59526062 93.81371277 113.59526062 93.13371277 C112.33296011 92.49165374 111.05957369 91.87140416 109.78276062 91.25871277 C109.07506531 90.91066589 108.36737 90.56261902 107.63822937 90.20402527 C98.66257206 87.04699048 89.50903522 86.84620526 80.08744812 86.90324402 C78.84020966 86.90370224 77.59297119 86.90416046 76.30793762 86.90463257 C73.69439227 86.90763452 71.08084838 86.91545844 68.46733093 86.92790222 C65.11247585 86.94327079 61.75795538 86.94871073 58.40308952 86.94795704 C55.19369408 86.94829297 51.98433044 86.95711321 48.77494812 86.96574402 C46.96424332 86.96741325 46.96424332 86.96741325 45.11695862 86.96911621 C44.0113559 86.97549606 42.90575317 86.98187592 41.76664734 86.9884491 C40.78944733 86.99226089 39.81224731 86.99607269 38.80543518 87 C36.62093634 86.88699862 36.62093634 86.88699862 35.59526062 88.13371277 Z M138.59526062 126.13371277 C140.0777097 129.83983548 141.36641268 132.88330952 143.59526062 136.13371277 C144.25526062 136.13371277 144.91526062 136.13371277 145.59526062 136.13371277 C145.73963562 136.75246277 145.88401062 137.37121277 146.03276062 138.00871277 C146.52678287 140.16629599 146.52678287 140.16629599 147.59526062 142.13371277 C148.25526062 142.13371277 148.91526062 142.13371277 149.59526062 142.13371277 C149.59526062 143.12371277 149.59526062 144.11371277 149.59526062 145.13371277 C150.25526062 145.13371277 150.91526062 145.13371277 151.59526062 145.13371277 C151.59526062 146.12371277 151.59526062 147.11371277 151.59526062 148.13371277 C152.25526062 148.13371277 152.91526062 148.13371277 153.59526062 148.13371277 C154.00191956 149.23972839 154.00191956 149.23972839 154.41679382 150.36808777 C155.54040913 153.00498733 156.7871802 155.0613562 158.45072937 157.38371277 C158.99020203 158.15715027 159.52967468 158.93058777 160.085495 159.72746277 C161.22091219 161.33716815 162.36422185 162.94133423 163.5151825 164.53996277 C164.3185907 165.70011902 164.3185907 165.70011902 165.13822937 166.88371277 C165.63347107 167.57980652 166.12871277 168.27590027 166.63896179 168.99308777 C167.89666587 171.80839269 167.52041403 173.2309352 166.59526062 176.13371277 C165.13619414 178.5711786 163.65395316 180.87318978 162.03276062 183.19621277 C161.11336801 184.54248378 160.19409853 185.88883888 159.27494812 187.23527527 C158.81829773 187.89817566 158.36164734 188.56107605 157.89115906 189.24406433 C156.11581478 191.83282934 154.38734571 194.45171668 152.65776062 197.07121277 C150.35313393 200.53525125 148.01950911 203.97681713 145.65385437 207.39933777 C144.89479797 208.49773987 144.89479797 208.49773987 144.1204071 209.61833191 C143.11564195 211.06958786 142.10869477 212.5193359 141.09941101 213.967453 C138.69902037 216.81818557 138.69902037 216.81818557 137.59526062 220.13371277 C153.425534 222.71263281 153.425534 222.71263281 168.03471375 218.36564636 C171.89553818 213.91062598 174.34278329 208.81636493 176.59135437 203.40226746 C177.52412286 201.29446472 178.56088784 199.52671645 179.87651062 197.64152527 C181.78370348 195.36546871 181.78370348 195.36546871 181.59526062 193.13371277 C182.91526062 193.13371277 184.23526062 193.13371277 185.59526062 193.13371277 C185.90463562 194.08246277 186.21401062 195.03121277 186.53276062 196.00871277 C187.46920804 198.99451685 187.46920804 198.99451685 188.59526062 201.13371277 C189.25526062 201.13371277 189.91526062 201.13371277 190.59526062 201.13371277 C191.73446015 203.97086207 192.81015099 206.78051854 193.77494812 209.68449402 C195.5879147 214.05227691 197.42823261 217.65816731 201.59526062 220.13371277 C210.73727024 221.98524117 220.37102405 220.97793034 229.59526062 220.13371277 C229.13997986 219.4230365 228.6846991 218.71236023 228.21562195 217.98014832 C222.61106556 209.20699561 222.61106556 209.20699561 220.23197937 205.21574402 C219.58873718 204.13679871 218.945495 203.05785339 218.28276062 201.94621277 C217.62662781 200.83890808 216.970495 199.73160339 216.29447937 198.59074402 C215.45336609 197.37451355 215.45336609 197.37451355 214.59526062 196.13371277 C213.93526062 196.13371277 213.27526062 196.13371277 212.59526062 196.13371277 C211.93526062 194.15371277 211.27526062 192.17371277 210.59526062 190.13371277 C209.93526062 190.13371277 209.27526062 190.13371277 208.59526062 190.13371277 C208.32842468 189.40152527 208.06158875 188.66933777 207.78666687 187.91496277 C206.27315466 184.38178017 204.17238075 181.52198718 201.93510437 178.41496277 C200.40782348 175.81457781 199.71455975 174.15748693 199.59526062 171.13371277 C201.02885437 168.30949402 201.02885437 168.30949402 203.03276062 165.44621277 C205.67971004 162.07944309 205.67971004 162.07944309 206.59526062 158.13371277 C207.25526062 158.13371277 207.91526062 158.13371277 208.59526062 158.13371277 C210.04301747 156.19755742 210.04301747 156.19755742 211.53276062 153.63371277 C215.10085179 147.83744652 218.92711875 142.25883643 222.8625946 136.70597839 C223.3170697 136.05564636 223.7715448 135.40531433 224.23979187 134.73527527 C224.64560486 134.16115906 225.05141785 133.58704285 225.4695282 132.99552917 C226.79936892 130.79614394 227.69449815 128.5366056 228.59526062 126.13371277 C224.20032001 125.90115257 219.80695776 125.75921202 215.40776062 125.63371277 C214.16188171 125.56668152 212.91600281 125.49965027 211.63237 125.43058777 C205.13182694 125.04992179 205.13182694 125.04992179 199.61625671 127.87980652 C197.87171651 130.60215073 196.59526062 132.86147625 196.59526062 136.13371277 C195.93526062 136.13371277 195.27526062 136.13371277 194.59526062 136.13371277 C193.13730429 138.17991483 193.13730429 138.17991483 191.72026062 140.75871277 C191.191745 141.66621277 190.66322937 142.57371277 190.11869812 143.50871277 C189.61596375 144.37496277 189.11322937 145.24121277 188.59526062 146.13371277 C187.3303068 148.22292681 186.04658052 150.16406434 184.59526062 152.13371277 C183.93526062 152.13371277 183.27526062 152.13371277 182.59526062 152.13371277 C180.81671569 149.72779426 179.15933823 147.32664844 177.53276062 144.82121277 C177.07320984 144.1309198 176.61365906 143.44062683 176.1401825 142.72941589 C174.24156431 139.84385081 172.69472177 137.43209622 171.59526062 134.13371277 C170.93526062 134.13371277 170.27526062 134.13371277 169.59526062 134.13371277 C168.93526062 132.15371277 168.27526062 130.17371277 167.59526062 128.13371277 C166.93526062 128.13371277 166.27526062 128.13371277 165.59526062 128.13371277 C165.59526062 127.47371277 165.59526062 126.81371277 165.59526062 126.13371277 C156.68526062 126.13371277 147.77526062 126.13371277 138.59526062 126.13371277 Z " fill="#030303" transform="translate(119.40473937988281,76.86628723144531)"/>
<path d="M0 0 C1.19947266 -0.02900391 2.39894531 -0.05800781 3.63476562 -0.08789062 C11.30466682 -0.14228709 17.20432311 0.81270361 24.0625 4.3125 C24.0625 4.9725 24.0625 5.6325 24.0625 6.3125 C24.7225 6.3125 25.3825 6.3125 26.0625 6.3125 C26.0625 6.9725 26.0625 7.6325 26.0625 8.3125 C26.7225 8.3125 27.3825 8.3125 28.0625 8.3125 C32.60705164 16.16402449 33.54900313 24.0784775 31.4375 32.93359375 C29.24471998 38.73858729 25.54958133 42.46146115 20.0625 45.3125 C13.40854516 47.92433274 6.75602953 47.57354987 -0.3125 47.5 C-1.51261719 47.49935547 -2.71273437 47.49871094 -3.94921875 47.49804688 C-12.79704397 47.45295603 -12.79704397 47.45295603 -13.9375 46.3125 C-14.03554851 44.9057478 -14.06548186 43.49414864 -14.06689453 42.08398438 C-14.07004669 41.18635376 -14.07319885 40.28872314 -14.07644653 39.3638916 C-14.0744223 38.38786987 -14.07239807 37.41184814 -14.0703125 36.40625 C-14.07126923 35.4112146 -14.07222595 34.4161792 -14.07321167 33.39099121 C-14.0738936 31.28263282 -14.07203844 29.17427235 -14.06787109 27.06591797 C-14.06252303 23.82644973 -14.06781567 20.58712015 -14.07421875 17.34765625 C-14.07355797 15.30468719 -14.07227681 13.26171822 -14.0703125 11.21875 C-14.07233673 10.24272827 -14.07436096 9.26670654 -14.07644653 8.2611084 C-14.07329437 7.36347778 -14.07014221 6.46584717 -14.06689453 5.54101562 C-14.06609894 4.74683228 -14.06530334 3.95264893 -14.06448364 3.13439941 C-13.70022736 -2.09177213 -3.86197855 0.03025048 0 0 Z " fill="#0B0B0B" transform="translate(195.9375,185.6875)"/>
<path d="M0 0 C0.33 0.66 0.66 1.32 1 2 C4.36551123 3.12183708 7.09060232 3.20800968 10.63671875 3.31640625 C11.93544922 3.35830078 13.23417969 3.40019531 14.57226562 3.44335938 C15.94400761 3.48316987 17.31575244 3.52288216 18.6875 3.5625 C20.07097645 3.60570835 21.45444027 3.64932339 22.83789062 3.69335938 C26.22515719 3.79958028 29.61249799 3.90162358 33 4 C33.495 5.485 33.495 5.485 34 7 C33.34 7 32.68 7 32 7 C32 6.34 32 5.68 32 5 C23.09 5 14.18 5 5 5 C5 5.66 5 6.32 5 7 C4.01 7 3.02 7 2 7 C2 9.97 2 12.94 2 16 C1.67 16 1.34 16 1 16 C0.67 10.72 0.34 5.44 0 0 Z " fill="#9E9C9D" transform="translate(253,198)"/>
<path d="M0 0 C0.66 0.33 1.32 0.66 2 1 C-1.96 4.96 -5.92 8.92 -10 13 C-10.33 12.34 -10.66 11.68 -11 11 C-9.92173635 9.72486237 -8.83714481 8.45507431 -7.75 7.1875 C-7.14671875 6.47980469 -6.5434375 5.77210937 -5.921875 5.04296875 C-4.07629602 3.08110329 -2.20054668 1.54330375 0 0 Z " fill="#565656" transform="translate(93,82)"/>
<path d="M0 0 C0.33 0.66 0.66 1.32 1 2 C1.99 2.33 2.98 2.66 4 3 C4 4.32 4 5.64 4 7 C3.34 7 2.68 7 2 7 C2 9.97 2 12.94 2 16 C1.67 16 1.34 16 1 16 C0.67 10.72 0.34 5.44 0 0 Z " fill="#5F5C5E" transform="translate(253,198)"/>
</svg>
